<?xml version="1.0" encoding="utf-8"?>
<!-- Generator: Adobe Illustrator 27.7.0, SVG Export Plug-In . SVG Version: 6.00 Build 0)  -->
<svg version="1.1" id="Capa_1" xmlns="http://www.w3.org/2000/svg" xmlns:xlink="http://www.w3.org/1999/xlink" x="0px" y="0px"
	 viewBox="0 0 34 31" style="enable-background:new 0 0 34 31;" xml:space="preserve">
<style type="text/css">
	.st0{fill:#FFFFFF;}
</style>
<g>
	<path class="st0" d="M5,4.7c0-0.4,0.4-0.8,0.8-0.8h2.4c0.4,0,0.7,0.2,0.8,0.6l0.6,2.6h18.6c0.4,0,0.8,0.4,0.8,0.8c0,0,0,0.1,0,0.1
		l-2.4,12.8c-0.1,0.4-0.4,0.7-0.8,0.7H11.4c-0.4,0-0.7-0.3-0.8-0.7L8.2,8L7.6,5.5H5.8C5.4,5.5,5,5.1,5,4.7z M10,8.7l2.1,11.2h13.1
		l2.1-11.2H10z M13,21.3c-1.8,0-3.2,1.4-3.2,3.2s1.4,3.2,3.2,3.2s3.2-1.4,3.2-3.2S14.8,21.3,13,21.3z M24.2,21.3
		c-1.8,0-3.2,1.4-3.2,3.2s1.4,3.2,3.2,3.2s3.2-1.4,3.2-3.2S26,21.3,24.2,21.3z M13,22.9c0.9,0,1.6,0.7,1.6,1.6
		c0,0.9-0.7,1.6-1.6,1.6s-1.6-0.7-1.6-1.6C11.4,23.6,12.1,22.9,13,22.9z M24.2,22.9c0.9,0,1.6,0.7,1.6,1.6c0,0.9-0.7,1.6-1.6,1.6
		c-0.9,0-1.6-0.7-1.6-1.6C22.6,23.6,23.3,22.9,24.2,22.9z"/>
</g>
</svg>
