<?xml version="1.0" encoding="UTF-8"?><svg xmlns="http://www.w3.org/2000/svg" xmlns:xlink="http://www.w3.org/1999/xlink" viewBox="0 0 667.859 1113.541"><defs><style>.uuid-f2c6680e-49d4-42a7-803f-f0dbaa662b85{stroke:#fffaf5;}.uuid-f2c6680e-49d4-42a7-803f-f0dbaa662b85,.uuid-5ab972c3-fcd0-4efc-9e92-adede9d75996,.uuid-a7947637-1bc3-46b9-bb57-ff182feb5c72{stroke-miterlimit:10;}.uuid-f2c6680e-49d4-42a7-803f-f0dbaa662b85,.uuid-a7947637-1bc3-46b9-bb57-ff182feb5c72{fill:none;stroke-linecap:round;stroke-width:.75px;}.uuid-5ab972c3-fcd0-4efc-9e92-adede9d75996,.uuid-46999d68-ae9f-4f20-87d3-9188c98d018d{fill:#444242;}.uuid-5ab972c3-fcd0-4efc-9e92-adede9d75996,.uuid-a7947637-1bc3-46b9-bb57-ff182feb5c72{stroke:#444242;}.uuid-3de0721c-e314-4d59-a13f-7c502b1fc9ee{fill:#c2af68;}.uuid-3de0721c-e314-4d59-a13f-7c502b1fc9ee,.uuid-1e8f0551-b4e6-45ce-bd17-cbe2c54c734d,.uuid-46999d68-ae9f-4f20-87d3-9188c98d018d{stroke-width:0px;}.uuid-1e8f0551-b4e6-45ce-bd17-cbe2c54c734d{fill:url(#uuid-21fd2d9d-e14c-435f-bfcf-01b1d3070588);}</style><linearGradient id="uuid-21fd2d9d-e14c-435f-bfcf-01b1d3070588" x1="-.915" y1="557.368" x2="669.488" y2="557.368" gradientUnits="userSpaceOnUse"><stop offset="0" stop-color="#fff"/><stop offset=".257" stop-color="#747f8e"/><stop offset=".634" stop-color="#747f8e"/><stop offset=".663" stop-color="#5d6672"/><stop offset=".707" stop-color="#41474f"/><stop offset=".753" stop-color="#292d32"/><stop offset=".803" stop-color="#17191c"/><stop offset=".856" stop-color="#0a0b0c"/><stop offset=".917" stop-color="#020202"/><stop offset="1" stop-color="#000"/></linearGradient></defs><g id="uuid-4cd7c987-8180-485a-bf38-3dad9d35ff00"><rect class="uuid-1e8f0551-b4e6-45ce-bd17-cbe2c54c734d" x="-.915" y=".029" width="670.403" height="1114.679"/></g><g id="uuid-8a70e03a-bd31-4a99-b737-fcc7a2393418"><circle class="uuid-3de0721c-e314-4d59-a13f-7c502b1fc9ee" cx="111.329" cy="891.651" r="111.281" transform="translate(-597.885 339.88) rotate(-45)"/><circle class="uuid-3de0721c-e314-4d59-a13f-7c502b1fc9ee" cx="333.892" cy="335.245" r="111.281" transform="translate(-139.259 334.288) rotate(-45)"/><path class="uuid-46999d68-ae9f-4f20-87d3-9188c98d018d" d="m222.611,669.089c0-61.361-49.921-111.281-111.281-111.281S.048,607.728.048,669.089h222.563Z"/><path class="uuid-46999d68-ae9f-4f20-87d3-9188c98d018d" d="m445.173,891.651c0-61.361-49.921-111.281-111.281-111.281s-111.281,49.92-111.281,111.281h222.563Z"/><path class="uuid-46999d68-ae9f-4f20-87d3-9188c98d018d" d="m667.737,669.089c0-61.361-49.921-111.281-111.281-111.281s-111.281,49.92-111.281,111.281h222.563Z"/><path class="uuid-3de0721c-e314-4d59-a13f-7c502b1fc9ee" d="m556.456,891.652c61.361,0,111.281-49.921,111.281-111.281s-49.92-111.281-111.281-111.281v222.563Z"/><path class="uuid-3de0721c-e314-4d59-a13f-7c502b1fc9ee" d="m667.737,223.579c0-61.361-49.921-111.281-111.281-111.281-61.361,0-111.281,49.92-111.281,111.281h222.563Z"/><circle class="uuid-a7947637-1bc3-46b9-bb57-ff182feb5c72" cx="111.329" cy="1002.933" r="111.281" transform="translate(-676.573 372.474) rotate(-45)"/><circle class="uuid-a7947637-1bc3-46b9-bb57-ff182feb5c72" cx="111.329" cy="1002.933" r="105.078" transform="translate(-857.863 721.981) rotate(-67.5)"/><circle class="uuid-a7947637-1bc3-46b9-bb57-ff182feb5c72" cx="111.329" cy="1002.933" r="98.874" transform="translate(-857.863 721.981) rotate(-67.5)"/><circle class="uuid-a7947637-1bc3-46b9-bb57-ff182feb5c72" cx="111.329" cy="1002.933" r="92.67" transform="translate(-857.863 721.981) rotate(-67.5)"/><circle class="uuid-a7947637-1bc3-46b9-bb57-ff182feb5c72" cx="111.329" cy="1002.933" r="86.466" transform="translate(-857.863 721.981) rotate(-67.5)"/><circle class="uuid-a7947637-1bc3-46b9-bb57-ff182feb5c72" cx="111.329" cy="1002.933" r="80.263" transform="translate(-857.863 721.981) rotate(-67.5)"/><circle class="uuid-a7947637-1bc3-46b9-bb57-ff182feb5c72" cx="111.329" cy="1002.933" r="74.059"/><circle class="uuid-a7947637-1bc3-46b9-bb57-ff182feb5c72" cx="111.329" cy="1002.933" r="67.989"/><circle class="uuid-a7947637-1bc3-46b9-bb57-ff182feb5c72" cx="111.329" cy="1002.933" r="62.007"/><circle class="uuid-a7947637-1bc3-46b9-bb57-ff182feb5c72" cx="111.329" cy="1002.933" r="56.026"/><circle class="uuid-a7947637-1bc3-46b9-bb57-ff182feb5c72" cx="111.329" cy="1002.933" r="50.044"/><circle class="uuid-a7947637-1bc3-46b9-bb57-ff182feb5c72" cx="111.329" cy="1002.933" r="43.941"/><circle class="uuid-a7947637-1bc3-46b9-bb57-ff182feb5c72" cx="111.329" cy="1002.933" r="38.08"/><circle class="uuid-a7947637-1bc3-46b9-bb57-ff182feb5c72" cx="111.329" cy="1002.933" r="32.099"/><circle class="uuid-a7947637-1bc3-46b9-bb57-ff182feb5c72" cx="111.329" cy="1002.933" r="26.117"/><circle class="uuid-a7947637-1bc3-46b9-bb57-ff182feb5c72" cx="111.329" cy="1002.933" r="20.135"/><circle class="uuid-a7947637-1bc3-46b9-bb57-ff182feb5c72" cx="111.329" cy="1002.933" r="14.154"/><path class="uuid-a7947637-1bc3-46b9-bb57-ff182feb5c72" d="m445.173,669.088c0,61.361-49.921,111.282-111.281,111.282s-111.281-49.921-111.281-111.282"/><path class="uuid-a7947637-1bc3-46b9-bb57-ff182feb5c72" d="m438.969,669.088c0,57.94-47.138,105.078-105.078,105.078s-105.078-47.138-105.078-105.078"/><path class="uuid-a7947637-1bc3-46b9-bb57-ff182feb5c72" d="m432.766,669.088c0,54.519-44.355,98.874-98.874,98.874s-98.874-44.355-98.874-98.874"/><path class="uuid-a7947637-1bc3-46b9-bb57-ff182feb5c72" d="m426.562,669.088c0,51.099-41.572,92.67-92.67,92.67s-92.67-41.572-92.67-92.67"/><path class="uuid-a7947637-1bc3-46b9-bb57-ff182feb5c72" d="m420.358,669.088c0,47.678-38.789,86.467-86.466,86.467s-86.466-38.789-86.466-86.467"/><path class="uuid-a7947637-1bc3-46b9-bb57-ff182feb5c72" d="m414.154,669.088c0,44.257-36.006,80.263-80.263,80.263s-80.263-36.006-80.263-80.263"/><path class="uuid-a7947637-1bc3-46b9-bb57-ff182feb5c72" d="m407.951,669.089c0,40.902-33.157,74.059-74.059,74.059s-74.059-33.157-74.059-74.059"/><path class="uuid-a7947637-1bc3-46b9-bb57-ff182feb5c72" d="m401.881,669.089c0,37.549-30.44,67.989-67.989,67.989s-67.989-30.44-67.989-67.989"/><path class="uuid-a7947637-1bc3-46b9-bb57-ff182feb5c72" d="m395.899,669.089c0,34.246-27.762,62.007-62.007,62.007s-62.007-27.762-62.007-62.007"/><path class="uuid-a7947637-1bc3-46b9-bb57-ff182feb5c72" d="m389.917,669.089c0,30.942-25.084,56.026-56.026,56.026s-56.026-25.084-56.026-56.026"/><path class="uuid-a7947637-1bc3-46b9-bb57-ff182feb5c72" d="m383.936,669.089c0,27.639-22.405,50.044-50.044,50.044s-50.044-22.405-50.044-50.044"/><path class="uuid-a7947637-1bc3-46b9-bb57-ff182feb5c72" d="m377.832,669.089c0,24.268-19.673,43.941-43.941,43.941s-43.941-19.673-43.941-43.941"/><path class="uuid-a7947637-1bc3-46b9-bb57-ff182feb5c72" d="m371.972,669.089c0,21.031-17.049,38.08-38.08,38.08s-38.08-17.049-38.08-38.08"/><path class="uuid-a7947637-1bc3-46b9-bb57-ff182feb5c72" d="m365.99,669.089c0,17.728-14.371,32.099-32.099,32.099s-32.099-14.371-32.099-32.099"/><path class="uuid-a7947637-1bc3-46b9-bb57-ff182feb5c72" d="m360.009,669.089c0,14.424-11.693,26.117-26.117,26.117s-26.117-11.693-26.117-26.117"/><path class="uuid-a7947637-1bc3-46b9-bb57-ff182feb5c72" d="m354.027,669.089c0,11.12-9.015,20.135-20.135,20.135s-20.135-9.015-20.135-20.135"/><path class="uuid-a7947637-1bc3-46b9-bb57-ff182feb5c72" d="m348.045,669.089c0,7.817-6.337,14.154-14.154,14.154s-14.154-6.337-14.154-14.154"/><path class="uuid-46999d68-ae9f-4f20-87d3-9188c98d018d" d="m667.736,223.963c-61.361,0-111.281,49.921-111.281,111.281s49.92,111.281,111.281,111.281v-222.563Z"/><path class="uuid-a7947637-1bc3-46b9-bb57-ff182feb5c72" d="m445.173,223.964c61.361,0,111.282,49.921,111.282,111.281s-49.921,111.281-111.282,111.281"/><path class="uuid-a7947637-1bc3-46b9-bb57-ff182feb5c72" d="m445.173,230.167c57.94,0,105.078,47.138,105.078,105.078s-47.138,105.078-105.078,105.078"/><path class="uuid-a7947637-1bc3-46b9-bb57-ff182feb5c72" d="m445.173,236.371c54.519,0,98.874,44.355,98.874,98.874s-44.355,98.874-98.874,98.874"/><path class="uuid-a7947637-1bc3-46b9-bb57-ff182feb5c72" d="m445.173,242.575c51.099,0,92.67,41.572,92.67,92.67s-41.572,92.67-92.67,92.67"/><path class="uuid-a7947637-1bc3-46b9-bb57-ff182feb5c72" d="m445.173,248.779c47.678,0,86.467,38.789,86.467,86.466s-38.789,86.466-86.467,86.466"/><path class="uuid-a7947637-1bc3-46b9-bb57-ff182feb5c72" d="m445.173,254.982c44.257,0,80.263,36.006,80.263,80.263s-36.006,80.263-80.263,80.263"/><path class="uuid-a7947637-1bc3-46b9-bb57-ff182feb5c72" d="m445.174,261.186c40.902,0,74.059,33.157,74.059,74.059s-33.157,74.059-74.059,74.059"/><path class="uuid-a7947637-1bc3-46b9-bb57-ff182feb5c72" d="m445.174,267.256c37.549,0,67.989,30.44,67.989,67.989s-30.44,67.989-67.989,67.989"/><path class="uuid-a7947637-1bc3-46b9-bb57-ff182feb5c72" d="m445.174,273.238c34.246,0,62.007,27.762,62.007,62.007s-27.762,62.007-62.007,62.007"/><path class="uuid-a7947637-1bc3-46b9-bb57-ff182feb5c72" d="m445.174,279.219c30.942,0,56.026,25.084,56.026,56.026s-25.084,56.026-56.026,56.026"/><path class="uuid-a7947637-1bc3-46b9-bb57-ff182feb5c72" d="m445.174,285.201c27.639,0,50.044,22.405,50.044,50.044s-22.405,50.044-50.044,50.044"/><path class="uuid-a7947637-1bc3-46b9-bb57-ff182feb5c72" d="m445.174,291.304c24.268,0,43.941,19.673,43.941,43.941s-19.673,43.941-43.941,43.941"/><path class="uuid-a7947637-1bc3-46b9-bb57-ff182feb5c72" d="m445.174,297.165c21.031,0,38.08,17.049,38.08,38.08s-17.049,38.08-38.08,38.08"/><path class="uuid-a7947637-1bc3-46b9-bb57-ff182feb5c72" d="m445.174,303.146c17.728,0,32.099,14.371,32.099,32.099s-14.371,32.099-32.099,32.099"/><path class="uuid-a7947637-1bc3-46b9-bb57-ff182feb5c72" d="m445.174,309.128c14.424,0,26.117,11.693,26.117,26.117s-11.693,26.117-26.117,26.117"/><path class="uuid-a7947637-1bc3-46b9-bb57-ff182feb5c72" d="m445.174,315.11c11.12,0,20.135,9.015,20.135,20.135s-9.015,20.135-20.135,20.135"/><path class="uuid-a7947637-1bc3-46b9-bb57-ff182feb5c72" d="m445.174,321.091c7.817,0,14.154,6.337,14.154,14.154s-6.337,14.154-14.154,14.154"/><circle class="uuid-5ab972c3-fcd0-4efc-9e92-adede9d75996" cx="111.329" cy="446.526" r="111.281" transform="translate(-283.134 209.506) rotate(-45)"/><circle class="uuid-f2c6680e-49d4-42a7-803f-f0dbaa662b85" cx="111.329" cy="446.526" r="105.078" transform="translate(-343.811 378.503) rotate(-67.5)"/><circle class="uuid-f2c6680e-49d4-42a7-803f-f0dbaa662b85" cx="111.329" cy="446.526" r="98.874" transform="translate(-343.811 378.503) rotate(-67.5)"/><circle class="uuid-f2c6680e-49d4-42a7-803f-f0dbaa662b85" cx="111.329" cy="446.526" r="92.67" transform="translate(-343.811 378.503) rotate(-67.5)"/><circle class="uuid-f2c6680e-49d4-42a7-803f-f0dbaa662b85" cx="111.329" cy="446.526" r="86.466" transform="translate(-343.811 378.503) rotate(-67.5)"/><circle class="uuid-f2c6680e-49d4-42a7-803f-f0dbaa662b85" cx="111.329" cy="446.526" r="80.263" transform="translate(-343.811 378.503) rotate(-67.5)"/><circle class="uuid-f2c6680e-49d4-42a7-803f-f0dbaa662b85" cx="111.329" cy="446.526" r="74.059"/><circle class="uuid-f2c6680e-49d4-42a7-803f-f0dbaa662b85" cx="111.329" cy="446.526" r="67.989"/><circle class="uuid-f2c6680e-49d4-42a7-803f-f0dbaa662b85" cx="111.329" cy="446.526" r="62.007"/><circle class="uuid-f2c6680e-49d4-42a7-803f-f0dbaa662b85" cx="111.329" cy="446.526" r="56.026"/><circle class="uuid-f2c6680e-49d4-42a7-803f-f0dbaa662b85" cx="111.329" cy="446.526" r="50.044"/><circle class="uuid-f2c6680e-49d4-42a7-803f-f0dbaa662b85" cx="111.329" cy="446.526" r="43.941"/><circle class="uuid-f2c6680e-49d4-42a7-803f-f0dbaa662b85" cx="111.329" cy="446.526" r="38.08"/><circle class="uuid-f2c6680e-49d4-42a7-803f-f0dbaa662b85" cx="111.329" cy="446.526" r="32.099"/><circle class="uuid-f2c6680e-49d4-42a7-803f-f0dbaa662b85" cx="111.329" cy="446.526" r="26.117"/><circle class="uuid-f2c6680e-49d4-42a7-803f-f0dbaa662b85" cx="111.329" cy="446.526" r="20.135"/><circle class="uuid-f2c6680e-49d4-42a7-803f-f0dbaa662b85" cx="111.329" cy="446.526" r="14.154"/><circle class="uuid-5ab972c3-fcd0-4efc-9e92-adede9d75996" cx="556.455" cy="1002.933" r="111.281" transform="translate(-546.199 687.225) rotate(-45)"/><circle class="uuid-f2c6680e-49d4-42a7-803f-f0dbaa662b85" cx="556.455" cy="1002.933" r="105.078" transform="translate(-583.08 1133.224) rotate(-67.5)"/><circle class="uuid-f2c6680e-49d4-42a7-803f-f0dbaa662b85" cx="556.455" cy="1002.933" r="98.874" transform="translate(-583.08 1133.224) rotate(-67.5)"/><circle class="uuid-f2c6680e-49d4-42a7-803f-f0dbaa662b85" cx="556.455" cy="1002.933" r="92.67" transform="translate(-583.08 1133.224) rotate(-67.5)"/><circle class="uuid-f2c6680e-49d4-42a7-803f-f0dbaa662b85" cx="556.455" cy="1002.933" r="86.466" transform="translate(-583.08 1133.224) rotate(-67.5)"/><circle class="uuid-f2c6680e-49d4-42a7-803f-f0dbaa662b85" cx="556.455" cy="1002.933" r="80.263" transform="translate(-583.08 1133.224) rotate(-67.5)"/><circle class="uuid-f2c6680e-49d4-42a7-803f-f0dbaa662b85" cx="556.455" cy="1002.933" r="74.059"/><circle class="uuid-f2c6680e-49d4-42a7-803f-f0dbaa662b85" cx="556.455" cy="1002.933" r="67.989"/><circle class="uuid-f2c6680e-49d4-42a7-803f-f0dbaa662b85" cx="556.455" cy="1002.933" r="62.007"/><circle class="uuid-f2c6680e-49d4-42a7-803f-f0dbaa662b85" cx="556.455" cy="1002.933" r="56.026"/><circle class="uuid-f2c6680e-49d4-42a7-803f-f0dbaa662b85" cx="556.455" cy="1002.933" r="50.044"/><circle class="uuid-f2c6680e-49d4-42a7-803f-f0dbaa662b85" cx="556.455" cy="1002.933" r="43.941"/><circle class="uuid-f2c6680e-49d4-42a7-803f-f0dbaa662b85" cx="556.455" cy="1002.933" r="38.08"/><circle class="uuid-f2c6680e-49d4-42a7-803f-f0dbaa662b85" cx="556.455" cy="1002.933" r="32.099"/><circle class="uuid-f2c6680e-49d4-42a7-803f-f0dbaa662b85" cx="556.455" cy="1002.933" r="26.117"/><circle class="uuid-f2c6680e-49d4-42a7-803f-f0dbaa662b85" cx="556.455" cy="1002.933" r="20.135"/><circle class="uuid-f2c6680e-49d4-42a7-803f-f0dbaa662b85" cx="556.455" cy="1002.933" r="14.154"/><path class="uuid-46999d68-ae9f-4f20-87d3-9188c98d018d" d="m222.611,446.526h0v222.562c0-61.361,49.921-111.281,111.281-111.281h0c-61.361,0-111.281-49.921-111.281-111.282Z"/><path class="uuid-46999d68-ae9f-4f20-87d3-9188c98d018d" d="m445.174,446.526h0v222.562c0-61.361,49.921-111.281,111.281-111.281h0c-61.361,0-111.281-49.921-111.281-111.282Z"/><path class="uuid-46999d68-ae9f-4f20-87d3-9188c98d018d" d="m.047,223.964c0,61.361,49.921,111.281,111.281,111.281s111.281-49.92,111.281-111.281H.047Z"/><path class="uuid-46999d68-ae9f-4f20-87d3-9188c98d018d" d="m222.61,446.526h0v-222.562c0,61.361-49.921,111.281-111.281,111.281h0c61.361,0,111.281,49.921,111.281,111.282Z"/><path class="uuid-46999d68-ae9f-4f20-87d3-9188c98d018d" d="m445.173,446.526h0v222.562c0-61.361-49.921-111.281-111.281-111.281h0c61.361,0,111.281-49.921,111.281-111.282Z"/><path class="uuid-46999d68-ae9f-4f20-87d3-9188c98d018d" d="m667.736,1002.933h0v-222.562c0,61.361-49.921,111.281-111.281,111.281h0c61.361,0,111.281,49.921,111.281,111.282Z"/><path class="uuid-46999d68-ae9f-4f20-87d3-9188c98d018d" d="m445.174,1002.933h0v-222.562c0,61.361,49.921,111.281,111.281,111.281h0c-61.361,0-111.281,49.921-111.281,111.282Z"/><path class="uuid-46999d68-ae9f-4f20-87d3-9188c98d018d" d="m667.736,223.964h0V1.401c0,61.361-49.921,111.281-111.281,111.281h0c61.361,0,111.281,49.921,111.281,111.282Z"/><path class="uuid-46999d68-ae9f-4f20-87d3-9188c98d018d" d="m445.174,223.964h0V1.401c0,61.361,49.921,111.281,111.281,111.281h0c-61.361,0-111.281,49.921-111.281,111.282Z"/><path class="uuid-46999d68-ae9f-4f20-87d3-9188c98d018d" d="m222.611,223.964h0V1.401c0,61.361,49.921,111.281,111.281,111.281h0c-61.361,0-111.281,49.921-111.281,111.282Z"/><path class="uuid-46999d68-ae9f-4f20-87d3-9188c98d018d" d="m333.892,1002.933c-61.361,0-111.281-49.921-111.281-111.281v222.562s0,0,0,0h222.563s0-222.562,0-222.562c0,61.361-49.921,111.281-111.281,111.281Z"/><path class="uuid-46999d68-ae9f-4f20-87d3-9188c98d018d" d="m222.611,1.401c0,61.361,49.921,111.281,111.281,111.281S445.174,62.762,445.174,1.401h-222.563Z"/><path class="uuid-3de0721c-e314-4d59-a13f-7c502b1fc9ee" d="m111.329,1.401C49.968,1.401.048,51.321.048,112.682s49.92,111.281,111.281,111.281V1.401Z"/><path class="uuid-a7947637-1bc3-46b9-bb57-ff182feb5c72" d="m222.611,223.964c0-61.361,49.921-111.282,111.281-111.282s111.281,49.921,111.281,111.282"/><path class="uuid-a7947637-1bc3-46b9-bb57-ff182feb5c72" d="m228.815,223.964c0-57.94,47.138-105.078,105.078-105.078s105.078,47.138,105.078,105.078"/><path class="uuid-a7947637-1bc3-46b9-bb57-ff182feb5c72" d="m235.019,223.964c0-54.519,44.355-98.874,98.874-98.874s98.874,44.355,98.874,98.874"/><path class="uuid-a7947637-1bc3-46b9-bb57-ff182feb5c72" d="m241.223,223.964c0-51.099,41.572-92.67,92.67-92.67s92.67,41.572,92.67,92.67"/><path class="uuid-a7947637-1bc3-46b9-bb57-ff182feb5c72" d="m247.426,223.964c0-47.678,38.789-86.467,86.466-86.467s86.466,38.789,86.466,86.467"/><path class="uuid-a7947637-1bc3-46b9-bb57-ff182feb5c72" d="m253.63,223.964c0-44.257,36.006-80.263,80.263-80.263s80.263,36.006,80.263,80.263"/><path class="uuid-a7947637-1bc3-46b9-bb57-ff182feb5c72" d="m259.834,223.964c0-40.902,33.157-74.059,74.059-74.059s74.059,33.157,74.059,74.059"/><path class="uuid-a7947637-1bc3-46b9-bb57-ff182feb5c72" d="m265.904,223.964c0-37.549,30.44-67.989,67.989-67.989s67.989,30.44,67.989,67.989"/><path class="uuid-a7947637-1bc3-46b9-bb57-ff182feb5c72" d="m271.885,223.964c0-34.246,27.762-62.007,62.007-62.007s62.007,27.762,62.007,62.007"/><path class="uuid-a7947637-1bc3-46b9-bb57-ff182feb5c72" d="m277.867,223.964c0-30.942,25.084-56.026,56.026-56.026s56.026,25.084,56.026,56.026"/><path class="uuid-a7947637-1bc3-46b9-bb57-ff182feb5c72" d="m283.849,223.964c0-27.639,22.405-50.044,50.044-50.044s50.044,22.405,50.044,50.044"/><path class="uuid-a7947637-1bc3-46b9-bb57-ff182feb5c72" d="m289.952,223.964c0-24.268,19.673-43.941,43.941-43.941s43.941,19.673,43.941,43.941"/><path class="uuid-a7947637-1bc3-46b9-bb57-ff182feb5c72" d="m295.812,223.964c0-21.031,17.049-38.08,38.08-38.08s38.08,17.049,38.08,38.08"/><path class="uuid-a7947637-1bc3-46b9-bb57-ff182feb5c72" d="m301.794,223.964c0-17.728,14.371-32.099,32.099-32.099s32.099,14.371,32.099,32.099"/><path class="uuid-a7947637-1bc3-46b9-bb57-ff182feb5c72" d="m307.776,223.964c0-14.424,11.693-26.117,26.117-26.117s26.117,11.693,26.117,26.117"/><path class="uuid-a7947637-1bc3-46b9-bb57-ff182feb5c72" d="m313.757,223.964c0-11.12,9.015-20.135,20.135-20.135s20.135,9.015,20.135,20.135"/><path class="uuid-a7947637-1bc3-46b9-bb57-ff182feb5c72" d="m319.739,223.964c0-7.817,6.337-14.154,14.154-14.154s14.154,6.337,14.154,14.154"/><path class="uuid-46999d68-ae9f-4f20-87d3-9188c98d018d" d="m.048,1.401v111.28C.048,51.321,49.969,1.401,111.33,1.401h0"/><path class="uuid-46999d68-ae9f-4f20-87d3-9188c98d018d" d="m222.611,1.401v111.281c0-61.361-49.921-111.281-111.282-111.281h0"/></g></svg>