<?xml version="1.0" encoding="UTF-8"?><svg id="uuid-845b0ee5-a06a-487d-b69f-b6aff7e35a2d" xmlns="http://www.w3.org/2000/svg" viewBox="0 0 487 368"><defs><style>.uuid-3553dce2-31ba-4fc0-a9fa-d83360e8abc8{fill:#fff;}.uuid-3553dce2-31ba-4fc0-a9fa-d83360e8abc8,.uuid-554c9d2f-87f5-411a-af05-7c996f6ee172{stroke-width:0px;}.uuid-53aaaa80-f59c-42a5-b238-06cec2738f58{fill:none;stroke:#fff;stroke-linecap:round;stroke-linejoin:round;stroke-width:6.288px;}.uuid-554c9d2f-87f5-411a-af05-7c996f6ee172{fill:#cab163;}</style></defs><path class="uuid-554c9d2f-87f5-411a-af05-7c996f6ee172" d="m39.358,246.903l9.215,26.384c1.552,4.269,2.813,8.148,3.783,12.028h.291c1.067-3.88,2.425-7.76,3.977-12.028l9.118-26.384h8.924l-18.43,46.948h-8.148l-17.848-46.948h9.118Z"/><path class="uuid-554c9d2f-87f5-411a-af05-7c996f6ee172" d="m117.055,293.852l-.679-5.917h-.291c-2.619,3.686-7.663,6.984-14.356,6.984-9.506,0-14.356-6.693-14.356-13.483,0-11.349,10.088-17.557,28.227-17.46v-.97c0-3.88-1.067-10.864-10.67-10.864-4.365,0-8.924,1.358-12.222,3.492l-1.94-5.626c3.88-2.522,9.506-4.171,15.423-4.171,14.356,0,17.848,9.797,17.848,19.206v17.557c0,4.074.194,8.051.776,11.252h-7.76Zm-1.261-23.959c-9.312-.194-19.885,1.455-19.885,10.573,0,5.528,3.686,8.147,8.051,8.147,6.111,0,9.991-3.88,11.349-7.856.291-.873.485-1.844.485-2.716v-8.148Z"/><path class="uuid-554c9d2f-87f5-411a-af05-7c996f6ee172" d="m146.542,259.61c0-4.85-.097-8.827-.388-12.707h7.566l.485,7.76h.194c2.328-4.462,7.76-8.826,15.52-8.826,6.499,0,16.587,3.88,16.587,19.981v28.033h-8.536v-27.063c0-7.565-2.813-13.87-10.864-13.87-5.626,0-9.991,3.977-11.446,8.729-.388,1.067-.582,2.522-.582,3.978v28.227h-8.536v-34.241Z"/><path class="uuid-554c9d2f-87f5-411a-af05-7c996f6ee172" d="m249.652,224.981v56.745c0,4.171.098,8.924.389,12.125h-7.664l-.388-8.148h-.194c-2.619,5.238-8.342,9.216-16.005,9.216-11.349,0-20.079-9.604-20.079-23.862-.097-15.617,9.603-25.22,21.049-25.22,7.178,0,12.028,3.395,14.162,7.178h.194v-28.033h8.536Zm-8.536,41.031c0-1.067-.097-2.522-.388-3.589-1.261-5.433-5.917-9.895-12.319-9.895-8.827,0-14.065,7.76-14.065,18.14,0,9.506,4.656,17.362,13.871,17.362,5.723,0,10.961-3.782,12.513-10.185.291-1.164.388-2.328.388-3.687v-8.147Z"/><path class="uuid-554c9d2f-87f5-411a-af05-7c996f6ee172" d="m298.54,293.852l-.679-5.917h-.291c-2.619,3.686-7.664,6.984-14.356,6.984-9.506,0-14.356-6.693-14.356-13.483,0-11.349,10.088-17.557,28.228-17.46v-.97c0-3.88-1.067-10.864-10.67-10.864-4.365,0-8.925,1.358-12.222,3.492l-1.94-5.626c3.88-2.522,9.506-4.171,15.423-4.171,14.355,0,17.848,9.797,17.848,19.206v17.557c0,4.074.194,8.051.776,11.252h-7.76Zm-1.261-23.959c-9.312-.194-19.885,1.455-19.885,10.573,0,5.528,3.686,8.147,8.051,8.147,6.111,0,9.99-3.88,11.349-7.856.291-.873.485-1.844.485-2.716v-8.148Z"/><path class="uuid-554c9d2f-87f5-411a-af05-7c996f6ee172" d="m328.027,224.981h8.536v68.87h-8.536v-68.87Z"/><path class="uuid-554c9d2f-87f5-411a-af05-7c996f6ee172" d="m385.645,293.852l-.679-5.917h-.291c-2.619,3.686-7.663,6.984-14.356,6.984-9.506,0-14.355-6.693-14.355-13.483,0-11.349,10.088-17.557,28.227-17.46v-.97c0-3.88-1.067-10.864-10.67-10.864-4.365,0-8.924,1.358-12.223,3.492l-1.939-5.626c3.88-2.522,9.506-4.171,15.423-4.171,14.356,0,17.849,9.797,17.849,19.206v17.557c0,4.074.193,8.051.775,11.252h-7.76Zm-1.261-23.959c-9.312-.194-19.886,1.455-19.886,10.573,0,5.528,3.687,8.147,8.052,8.147,6.11,0,9.99-3.88,11.349-7.856.291-.873.485-1.844.485-2.716v-8.148Z"/><path class="uuid-554c9d2f-87f5-411a-af05-7c996f6ee172" d="m412.773,243.903l16.209,41.036c1.579,4.592,3.301,10.044,4.448,14.205l.287,2c1.291-4.162,4.726-11.47,6.448-16.493l12.775-40.748h9.343l-18.939,49.5c-9.04,23.819-15.209,36.015-23.819,43.475-6.17,5.452-7.339,3.604-10.495,4.179l-2.156-6.619c3.156-1.004,7.318-3.013,11.048-6.17,3.444-2.726,7.748-7.604,10.617-14.061.575-1.291,1.005-2.295,1.005-3.013s-.287-1.722-.861-3.299l-25.683-63.993h9.773Z"/><path class="uuid-3553dce2-31ba-4fc0-a9fa-d83360e8abc8" d="m83.951,318.541c-.183-3.438-.402-7.57-.366-10.641h-.11c-.841,2.889-1.865,5.96-3.108,9.362l-4.352,11.958h-2.414l-3.986-11.739c-1.17-3.474-2.157-6.655-2.853-9.581h-.073c-.073,3.072-.256,7.203-.475,10.898l-.658,10.569h-3.035l1.719-24.648h4.059l4.206,11.922c1.024,3.035,1.865,5.741,2.487,8.301h.11c.622-2.487,1.499-5.192,2.596-8.301l4.389-11.922h4.059l1.536,24.648h-3.108l-.622-10.825Z"/><path class="uuid-3553dce2-31ba-4fc0-a9fa-d83360e8abc8" d="m109.187,304.718v14.591c0,5.523,2.45,7.863,5.741,7.863,3.657,0,5.997-2.413,5.997-7.863v-14.591h3.218v14.372c0,7.57-3.986,10.678-9.326,10.678-5.047,0-8.85-2.889-8.85-10.532v-14.518h3.218Z"/><path class="uuid-3553dce2-31ba-4fc0-a9fa-d83360e8abc8" d="m143.089,304.718h3.182v21.979h10.532v2.67h-13.714v-24.648Z"/><path class="uuid-3553dce2-31ba-4fc0-a9fa-d83360e8abc8" d="m175.236,307.425h-7.497v-2.707h18.249v2.707h-7.534v21.942h-3.218v-21.942Z"/><path class="uuid-3553dce2-31ba-4fc0-a9fa-d83360e8abc8" d="m205.336,304.718v24.648h-3.182v-24.648h3.182Z"/><path class="uuid-3553dce2-31ba-4fc0-a9fa-d83360e8abc8" d="m228.999,307.425h-7.497v-2.707h18.249v2.707h-7.534v21.942h-3.218v-21.942Z"/><path class="uuid-3553dce2-31ba-4fc0-a9fa-d83360e8abc8" d="m259.099,304.718v24.648h-3.183v-24.648h3.183Z"/><path class="uuid-3553dce2-31ba-4fc0-a9fa-d83360e8abc8" d="m290.843,317.81h-9.582v8.887h10.678v2.67h-13.86v-24.648h13.312v2.67h-10.13v7.789h9.582v2.633Z"/><path class="uuid-3553dce2-31ba-4fc0-a9fa-d83360e8abc8" d="m309.496,329.367v-24.648h3.473l7.9,12.47c1.828,2.89,3.255,5.486,4.424,8.009l.074-.037c-.292-3.291-.366-6.29-.366-10.13v-10.313h2.999v24.648h-3.218l-7.826-12.507c-1.719-2.742-3.364-5.558-4.607-8.228l-.11.037c.183,3.108.256,6.071.256,10.167v10.532h-2.998Z"/><path class="uuid-3553dce2-31ba-4fc0-a9fa-d83360e8abc8" d="m346.982,305.048c1.939-.292,4.242-.512,6.766-.512,4.572,0,7.826,1.06,9.984,3.072,2.194,2.012,3.474,4.864,3.474,8.851,0,4.022-1.243,7.314-3.547,9.581-2.305,2.305-6.107,3.548-10.899,3.548-2.267,0-4.169-.11-5.778-.294v-24.245Zm3.182,21.796c.805.146,1.974.183,3.218.183,6.802,0,10.496-3.804,10.496-10.459.036-5.815-3.255-9.508-9.984-9.508-1.646,0-2.89.146-3.73.329v19.455Z"/><path class="uuid-3553dce2-31ba-4fc0-a9fa-d83360e8abc8" d="m388.237,321.614l-2.56,7.753h-3.291l8.374-24.648h3.841l8.411,24.648h-3.401l-2.633-7.753h-8.74Zm8.082-2.487l-2.414-7.095c-.548-1.609-.914-3.072-1.279-4.498h-.074c-.366,1.463-.768,2.962-1.243,4.461l-2.414,7.132h7.424Z"/><path class="uuid-53aaaa80-f59c-42a5-b238-06cec2738f58" d="m319.141,145.384c18.228,0,33.005-14.874,33.005-33.221s-14.777-33.221-33.005-33.221c-15.376,0-28.296,10.583-31.963,24.907-1.27,4.959-5.904,8.314-11.023,8.314h-.653c-7.527,0-13.011-7.123-11.123-14.41,6.341-24.48,28.455-42.548,54.761-42.548,31.253,0,56.588,25.501,56.588,56.958,0,28.086-20.197,51.425-46.771,56.104-5.612.988-9.818,5.661-9.818,11.359v.767c0,7.153,6.468,12.525,13.519,11.32,37.839-6.468,66.651-39.622,66.651-79.55,0-44.566-35.893-80.693-80.169-80.693s-80.169,36.127-80.169,80.693l-.006,11.326c0,44.565-35.893,80.693-80.169,80.693s-80.169-36.128-80.169-80.693c0-39.928,28.812-73.083,66.65-79.55,7.051-1.205,13.519,4.167,13.519,11.32v.767c0,5.698-4.206,10.371-9.818,11.359-26.573,4.679-46.77,28.017-46.77,56.104,0,31.457,25.335,56.958,56.588,56.958,26.307,0,48.421-18.068,54.761-42.548,1.887-7.287-3.596-14.41-11.123-14.41h-.653c-5.119,0-9.753,3.355-11.022,8.314-3.667,14.324-16.587,24.907-31.963,24.907-18.228,0-33.005-14.873-33.005-33.221s14.777-33.221,33.005-33.221"/></svg>